<?xml version="1.0" standalone="no"?>
<!DOCTYPE svg PUBLIC "-//W3C//DTD SVG 1.1//EN" "http://www.w3.org/Graphics/SVG/1.1/DTD/svg11.dtd" >
<svg xmlns="http://www.w3.org/2000/svg">
<metadata>Generated by IcoMoon</metadata>
<defs>
<font id="icomoon" horiz-adv-x="1024">
<font-face units-per-em="1024" ascent="960" descent="-64" />
<missing-glyph horiz-adv-x="1024" />
<glyph unicode="&#x20;" horiz-adv-x="512" d="" />
<glyph unicode="&#xe900;" glyph-name="add" horiz-adv-x="1019" d="M1018.905 363.94h-427.94v-427.94h-163.025v427.94h-427.94v168.119h427.94v422.846h163.025v-427.94h427.94v-163.025z" />
<glyph unicode="&#xe901;" glyph-name="almost-full" horiz-adv-x="1019" d="M860.975 812.259c101.891-101.891 147.741-219.065 147.741-361.711s-50.945-259.821-147.741-361.711-219.065-147.741-361.711-147.741c-122.269 0-234.348 40.756-326.050 122.269s-152.836 183.403-173.214 300.577c40.756-15.284 81.512-20.378 117.174-20.378 106.985 0 198.687 35.662 270.010 112.080 76.418 76.418 112.080 168.119 112.080 275.104 0 86.607-25.473 163.025-76.418 229.254 20.378 0 45.851 0 76.418 0 142.647 0 264.915-50.945 361.711-147.741zM764.179 149.97c96.796 71.323 142.647 173.214 142.647 305.672 0 112.080-45.851 213.97-132.458 295.483-56.040 50.945-112.080 81.512-173.214 101.891 0-40.756 0-76.418 0-117.174 0-35.662-5.095-81.512-20.378-132.458s-35.662-101.891-66.229-147.741c-35.662-61.134-91.701-106.985-157.93-142.647s-112.080-50.945-142.647-56.040-50.945-5.095-71.323-5.095c40.756-56.040 86.607-101.891 142.647-132.458 56.040-35.662 96.796-56.040 127.363-61.134 35.662-10.189 61.134-15.284 86.607-15.284 81.512 0 168.119 35.662 264.915 106.985z" />
<glyph unicode="&#xe902;" glyph-name="almost-old" horiz-adv-x="1019" d="M519.642 960c35.662 0 61.134 0 76.418-5.095-50.945-66.229-76.418-142.647-76.418-229.254 0-106.985 35.662-198.687 112.080-275.104s163.025-112.080 270.010-112.080c40.756 0 81.512 5.095 117.174 20.378-20.378-117.174-76.418-219.065-173.214-300.577-91.701-81.512-203.781-122.269-331.144-122.269-137.552 0-259.821 50.945-356.617 147.741-101.891 101.891-152.836 219.065-152.836 361.711s50.945 259.821 147.741 361.711 224.159 152.836 366.806 152.836zM254.726 149.97c96.796-71.323 183.403-101.891 264.915-101.891 25.473 0 50.945 5.095 81.512 10.189 30.567 10.189 71.323 30.567 127.363 61.134 56.040 35.662 101.891 76.418 142.647 132.458l-61.134 5.095c-40.756 5.095-91.701 25.473-152.836 56.040-61.134 35.662-112.080 81.512-152.836 142.647-71.323 101.891-96.796 229.254-81.512 392.279l-25.473-5.095c-20.378-5.095-40.756-20.378-71.323-35.662s-61.134-35.662-81.512-56.040c-91.701-86.607-132.458-183.403-132.458-295.483 0-137.552 45.851-239.443 142.647-305.672z" />
<glyph unicode="&#xe903;" glyph-name="cloudy" horiz-adv-x="1258" d="M911.92 134.687c0-56.040-20.378-101.891-56.040-142.647-40.756-40.756-86.607-56.040-142.647-56.040h-509.453v5.095c-61.134 10.189-106.985 40.756-147.741 86.607s-56.040 101.891-56.040 163.025c0 71.323 25.473 132.458 76.418 183.403s106.985 76.418 178.308 76.418c5.095 0 10.189 0 15.284 0s10.189 0 15.284 0c56.040 71.323 132.458 112.080 224.159 112.080 71.323 0 132.458-25.473 183.403-71.323s81.512-106.985 96.796-178.308c81.512-30.567 122.269-91.701 122.269-178.308zM769.274 73.552c15.284 15.284 25.473 35.662 25.473 61.134s-10.189 45.851-25.473 61.134c-15.284 15.284-35.662 25.473-61.134 25.473-15.284 0-35.662-5.095-50.945-15.284 15.284 20.378 20.378 45.851 20.378 71.323 0 45.851-15.284 86.607-50.945 117.174-35.662 35.662-76.418 50.945-122.269 50.945-40.756 0-81.512-15.284-112.080-40.756s-50.945-61.134-56.040-101.891c-25.473 20.378-50.945 30.567-81.512 30.567-40.756 0-76.418-15.284-101.891-40.756-30.567-25.473-40.756-61.134-40.756-101.891 0-66.229 30.567-112.080 91.701-132.458v-5.095h25.473c5.095 0 15.284-5.095 30.567-5.095 10.189 0 20.378 0 25.473 5.095h407.562c5.095 0 10.189-5.095 20.378-5.095 20.378 0 40.756 10.189 56.040 25.473zM366.806 730.746c-20.378 25.473-20.378 50.945 0 76.418l5.095 5.095c30.567 30.567 56.040 30.567 81.512 0l40.756-40.756c30.567-30.567 30.567-56.040 0-81.512v-5.095c-30.567-20.378-56.040-20.378-86.607 5.095l-40.756 40.756zM937.393 649.234c56.040-56.040 81.512-122.269 81.512-198.687s-30.567-142.647-86.607-203.781c-15.284 35.662-40.756 66.229-71.323 91.701 30.567 35.662 40.756 71.323 40.756 112.080 0 45.851-15.284 86.607-50.945 117.174-35.662 35.662-71.323 50.945-117.174 50.945-35.662 0-66.229-10.189-91.701-25.473-45.851 15.284-91.701 25.473-137.552 25.473 56.040 76.418 132.458 117.174 224.159 117.174 86.607-5.095 157.93-30.567 208.876-86.607zM697.95 802.070c-10.189 10.189-15.284 25.473-15.284 40.756v56.040c0 15.284 5.095 30.567 15.284 40.756s25.473 15.284 40.756 15.284h5.095c15.284 0 30.567-5.095 40.756-15.284s15.284-25.473 15.284-40.756v-56.040c0-15.284-5.095-30.567-15.284-40.756s-25.473-15.284-40.756-15.284h-5.095c-15.284 0-30.567 5.095-40.756 15.284zM1095.323 160.159c20.378-25.473 20.378-50.945 0-81.512l-5.095-5.095c-25.473-25.473-50.945-25.473-81.512 0l-40.756 40.756c-30.567 30.567-30.567 56.040 0 81.512l5.095 5.095c25.473 30.567 50.945 30.567 81.512 0l40.756-40.756zM983.244 695.085c-30.567 25.473-30.567 50.945 0 81.512l40.756 40.756c25.473 30.567 50.945 30.567 81.512 0l5.095-5.095c25.473-25.473 25.473-50.945 0-81.512l-40.756-40.756c-30.567-25.473-61.134-25.473-86.607 5.095v0zM1232.876 491.303c10.189-10.189 15.284-25.473 15.284-40.756v-5.095c0-15.284-5.095-30.567-15.284-40.756s-25.473-20.378-40.756-20.378h-61.134c-35.662 0-56.040 20.378-56.040 61.134v5.095c0 15.284 5.095 30.567 15.284 40.756s25.473 15.284 40.756 15.284h61.134c15.284 0 30.567-5.095 40.756-15.284z" />
<glyph unicode="&#xe904;" glyph-name="cloudy-day" horiz-adv-x="1493" d="M1436.657 419.98c40.756-50.945 56.040-112.080 56.040-178.308 0-86.607-30.567-157.93-91.701-219.065s-132.458-91.701-219.065-91.701h-810.030c-101.891 0-193.592 35.662-264.915 106.985-71.323 81.512-106.985 168.119-106.985 270.010s35.662 193.592 106.985 264.915c71.323 71.323 163.025 106.985 264.915 106.985h10.189c35.662 81.512 96.796 142.647 173.214 193.592s163.025 76.418 254.726 76.418c122.269 0 229.254-40.756 315.861-122.269 96.796-76.418 147.741-173.214 157.93-295.483 61.134-20.378 112.080-56.040 152.836-112.080zM1309.294 119.403c35.662 35.662 50.945 71.323 50.945 122.269 0 45.851-15.284 86.607-50.945 117.174-35.662 35.662-71.323 50.945-117.174 50.945-20.378 0-35.662 0-45.851-5.095 5.095 30.567 10.189 56.040 10.189 71.323 0 91.701-35.662 173.214-101.891 239.443s-147.741 101.891-244.537 101.891c-86.607 0-157.93-25.473-219.065-81.512s-101.891-127.363-112.080-208.876c-30.567 15.284-66.229 25.473-101.891 25.473-71.323-5.095-127.363-25.473-173.214-71.323s-71.323-101.891-71.323-168.119c0-66.229 25.473-122.269 71.323-168.119s101.891-71.323 168.119-71.323c5.095 0 5.095 0 10.189 0l5.095 5.095h779.463c5.095-5.095 15.284-5.095 25.473-5.095 40.756-5.095 81.512 15.284 117.174 45.851z" />
<glyph unicode="&#xe905;" glyph-name="delete" horiz-adv-x="1060" d="M1049.473 858.109v-96.796h-127.363v-830.408h-794.746v835.502h-127.363v91.701h320.955v96.796h412.657v-96.796h315.861zM478.886 766.408h-254.726v-733.612h254.726v733.612zM825.313 766.408h-254.726v-733.612h254.726v733.612z" />
<glyph unicode="&#xe906;" glyph-name="dust" horiz-adv-x="1182" d="M1130.985 532.060c30.567-40.756 45.851-86.607 45.851-142.647 0-66.229-25.473-122.269-71.323-168.119s-101.891-71.323-168.119-71.323h-647.005v5.095c-81.512 0-147.741 30.567-203.781 86.607s-86.607 127.363-86.607 203.781c0 81.512 30.567 152.836 86.607 208.876s127.363 86.607 203.781 86.607h10.189c30.567 61.134 76.418 112.080 137.552 152.836s127.363 61.134 203.781 61.134c96.796 0 178.308-30.567 249.632-96.796s112.080-142.647 122.269-234.348c45.851-20.378 86.607-45.851 117.174-91.701zM213.97-7.96v0c0-15.284-5.095-30.567-15.284-40.756s-25.473-15.284-35.662-15.284h-5.095c-15.284 0-25.473 5.095-35.662 15.284-15.284 10.189-20.378 25.473-20.378 35.662v5.095c0 15.284 5.095 25.473 15.284 40.756 10.189 10.189 25.473 15.284 35.662 15.284h5.095c35.662 0 56.040-20.378 56.040-56.040zM1029.095 297.711c25.473 25.473 40.756 56.040 40.756 96.796 0 35.662-15.284 66.229-40.756 91.701s-56.040 40.756-91.701 40.756c-15.284 0-30.567 0-35.662-5.095 5.095 25.473 5.095 45.851 5.095 56.040 0 71.323-25.473 137.552-76.418 188.498s-117.174 81.512-193.592 81.512c-66.229 0-127.363-20.378-173.214-66.229-50.945-45.851-76.418-96.796-91.701-168.119-25.473 15.284-50.945 25.473-76.418 25.473-50.945 0-96.796-20.378-132.458-56.040s-56.040-81.512-56.040-132.458c0-50.945 20.378-96.796 56.040-132.458s81.512-56.040 132.458-56.040h621.532c0 0 5.095 0 10.189 0s5.095 0 10.189 0c35.662-5.095 66.229 10.189 91.701 35.662zM412.657 32.796c10.189-10.189 15.284-25.473 15.284-40.756v-5.095c0-15.284-5.095-25.473-15.284-35.662s-25.473-15.284-35.662-15.284h-5.095c-15.284 0-25.473 5.095-35.662 15.284s-15.284 25.473-15.284 35.662v5.095c0 35.662 15.284 56.040 50.945 56.040h5.095c15.284 0 25.473-5.095 35.662-15.284zM626.627 32.796c10.189-10.189 15.284-25.473 15.284-40.756v-5.095c0-15.284-5.095-25.473-15.284-35.662s-25.473-15.284-35.662-15.284h-5.095c-15.284 0-25.473 5.095-35.662 15.284s-15.284 25.473-15.284 35.662v5.095c0 35.662 15.284 56.040 50.945 56.040h5.095c15.284 0 25.473-5.095 35.662-15.284zM855.881-7.96v0c0-15.284-5.095-30.567-15.284-40.756s-25.473-15.284-35.662-15.284h-5.095c-15.284 0-25.473 5.095-35.662 15.284s-15.284 25.473-15.284 35.662v5.095c0 15.284 5.095 25.473 15.284 40.756 10.189 10.189 25.473 15.284 35.662 15.284h5.095c35.662 0 50.945-20.378 50.945-56.040zM1069.851-7.96v0c0-15.284-5.095-30.567-15.284-40.756s-25.473-15.284-35.662-15.284h-5.095c-15.284 0-25.473 5.095-35.662 15.284s-15.284 25.473-15.284 35.662v5.095c0 15.284 5.095 25.473 15.284 40.756 10.189 10.189 25.473 15.284 35.662 15.284h5.095c30.567 0 50.945-20.378 50.945-56.040z" />
<glyph unicode="&#xe907;" glyph-name="empty-moon" d="M0 496.398c10.189 101.891 45.851 193.592 112.080 270.010l35.662-35.662c-56.040-71.323-86.607-147.741-96.796-234.348h-50.945zM112.080 119.403c-66.229 81.512-101.891 173.214-112.080 275.104h50.945c10.189-86.607 40.756-168.119 96.796-234.348l-35.662-40.756zM183.403 842.826c81.512 66.229 173.214 101.891 270.010 112.080v-50.945c-86.607-15.284-168.119-45.851-234.348-101.891l-35.662 40.756zM453.413-64c-96.796 10.189-188.498 45.851-270.010 112.080l35.662 35.662c76.418-56.040 152.836-86.607 234.348-96.796v-50.945zM560.398 954.905c101.891-10.189 193.592-50.945 270.010-117.174l-35.662-35.662c-66.229 50.945-147.741 86.607-234.348 101.891v50.945zM830.408 48.080c-81.512-66.229-168.119-101.891-270.010-112.080v50.945c81.512 10.189 163.025 40.756 234.348 96.796l35.662-35.662zM901.731 766.408c66.229-81.512 101.891-168.119 112.080-270.010h-45.851c-15.284 91.701-45.851 168.119-101.891 234.348l35.662 35.662zM1013.811 394.507c-10.189-101.891-45.851-193.592-112.080-275.104l-35.662 40.756c56.040 66.229 91.701 142.647 101.891 234.348h45.851z" />
<glyph unicode="&#xe908;" glyph-name="fog" horiz-adv-x="1187" d="M1136.080 532.060c30.567-40.756 45.851-86.607 45.851-142.647 0-61.134-20.378-117.174-61.134-163.025s-91.701-71.323-152.836-76.418v-5.095h-703.045v5.095c-76.418 10.189-137.552 40.756-188.498 96.796s-76.418 122.269-76.418 198.687c0 81.512 30.567 152.836 86.607 208.876s127.363 86.607 203.781 86.607h10.189c30.567 66.229 76.418 117.174 137.552 152.836 61.134 40.756 127.363 56.040 203.781 56.040 96.796 0 178.308-30.567 249.632-96.796s112.080-142.647 122.269-239.443c50.945-10.189 91.701-40.756 122.269-81.512zM1034.189 297.711c25.473 25.473 40.756 56.040 40.756 96.796 0 35.662-15.284 66.229-40.756 96.796-25.473 25.473-56.040 40.756-96.796 40.756-10.189 0-20.378 0-30.567-5.095 5.095 25.473 5.095 45.851 5.095 56.040 0 76.418-25.473 137.552-81.512 193.592-50.945 50.945-117.174 76.418-188.498 76.418-66.229 0-127.363-20.378-173.214-66.229-50.945-45.851-81.512-101.891-91.701-168.119-30.567 10.189-56.040 20.378-81.512 20.378-50.945 0-96.796-20.378-132.458-56.040s-56.040-81.512-56.040-132.458c0-45.851 15.284-91.701 45.851-122.269 30.567-35.662 66.229-56.040 117.174-66.229h647.005c0 0 5.095 0 10.189 0s10.189 0 15.284 0c30.567-5.095 66.229 5.095 91.701 35.662zM157.93 93.93h860.975v-50.945h-860.975v50.945zM157.93-13.055h860.975v-50.945h-860.975v50.945z" />
<glyph unicode="&#xe909;" glyph-name="full-moon" d="M1018.905 450.547c0-142.647-50.945-259.821-147.741-361.711s-219.065-147.741-361.711-147.741c-142.647 0-259.821 50.945-361.711 147.741s-147.741 219.065-147.741 361.711c0 142.647 50.945 259.821 147.741 361.711s219.065 147.741 361.711 147.741c142.647 0 259.821-50.945 361.711-147.741s147.741-219.065 147.741-361.711zM917.015 450.547c0 112.080-40.756 208.876-117.174 290.388-81.512 81.512-178.308 117.174-290.388 117.174s-208.876-35.662-290.388-117.174c-76.418-81.512-117.174-178.308-117.174-290.388s40.756-208.876 117.174-285.294c81.512-81.512 178.308-122.269 290.388-122.269s208.876 40.756 290.388 117.174c76.418 81.512 117.174 178.308 117.174 290.388z" />
<glyph unicode="&#xe90a;" glyph-name="grow-moon" d="M239.443 144.876c-61.134 10.189-117.174 25.473-173.214 56.040-30.567 50.945-45.851 112.080-56.040 173.214 35.662-40.756 76.418-71.323 132.458-96.796 25.473-50.945 56.040-91.701 96.796-132.458zM952.677 710.368c45.851-81.512 71.323-168.119 71.323-264.915 0-142.647-50.945-259.821-147.741-361.711s-219.065-147.741-361.711-147.741c-96.796 0-183.403 25.473-264.915 76.418s-142.647 112.080-183.403 193.592c50.945-30.567 112.080-45.851 173.214-56.040 76.418-71.323 168.119-106.985 275.104-106.985 112.080 0 213.97 40.756 290.388 122.269 81.512 81.512 122.269 178.308 122.269 285.294 0 101.891-35.662 193.592-106.985 275.104-15.284 71.323-35.662 127.363-61.134 178.308 81.512-50.945 147.741-112.080 193.592-193.592zM682.667 817.353c40.756-15.284 86.607-45.851 137.552-96.796 0-10.189 0-20.378 0-35.662s0-25.473 0-35.662c0-142.647-50.945-259.821-147.741-361.711s-219.065-147.741-361.711-147.741c-15.284 0-40.756 5.095-71.323 10.189-40.756 35.662-71.323 81.512-96.796 132.458 50.945-25.473 106.985-35.662 168.119-35.662 112.080 0 208.876 40.756 290.388 122.269 76.418 81.512 117.174 178.308 117.174 285.294 0 61.134-15.284 117.174-35.662 163.025zM585.871 954.905c56.040-10.189 117.174-25.473 173.214-56.040 25.473-45.851 45.851-106.985 61.134-178.308-45.851 45.851-91.701 81.512-137.552 96.796-15.284 45.851-50.945 91.701-96.796 137.552z" />
<glyph unicode="&#xe90b;" glyph-name="heavy-rain" horiz-adv-x="1248" d="M1197.214 511.682c30.567-45.851 45.851-91.701 45.851-147.741 0-71.323-25.473-132.458-76.418-183.403s-112.080-76.418-183.403-76.418h-50.945l35.662 117.174h5.095c0 0 5.095 0 10.189 0s5.095 0 10.189 0c35.662 0 71.323 15.284 96.796 40.756s40.756 61.134 40.756 101.891c0 35.662-15.284 71.323-40.756 96.796s-61.134 40.756-96.796 40.756c-15.284 0-30.567 0-35.662-5.095 5.095 25.473 5.095 45.851 5.095 61.134 0 76.418-25.473 142.647-81.512 198.687s-122.269 86.607-203.781 86.607c-71.323 0-132.458-25.473-183.403-71.323s-86.607-106.985-96.796-173.214c-30.567 15.284-61.134 20.378-86.607 20.378-56.040 0-101.891-20.378-142.647-56.040-40.756-40.756-56.040-86.607-56.040-142.647s20.378-101.891 56.040-142.647c40.756-40.756 86.607-56.040 142.647-56.040h45.851l-66.229-112.080c-81.512 5.095-152.836 35.662-203.781 96.796-61.134 56.040-86.607 127.363-86.607 208.876 0 86.607 30.567 163.025 91.701 224.159s132.458 91.701 219.065 91.701h10.189c30.567 66.229 81.512 122.269 142.647 163.025 66.229 40.756 137.552 61.134 213.97 61.134 101.891 0 188.498-35.662 264.915-101.891s117.174-152.836 127.363-249.632c56.040-20.378 96.796-50.945 127.363-91.701zM499.264 195.821l-56.040-178.308c-20.378-35.662-45.851-40.756-76.418-20.378h-5.095c-30.567 15.284-35.662 40.756-20.378 76.418l112.080 178.308c15.284 25.473 30.567 30.567 50.945 20.378h5.095c10.189-5.095 5.095-30.567-10.189-76.418zM708.139 272.239c15.284-10.189 15.284-35.662-5.095-81.512l-91.701-229.254c-5.095-15.284-15.284-20.378-35.662-25.473-15.284-5.095-30.567-5.095-40.756 5.095l-5.095 5.095c-30.567 15.284-35.662 40.756-15.284 76.418l137.552 229.254c20.378 20.378 35.662 30.567 56.040 20.378v0zM901.731 272.239c10.189-5.095 10.189-30.567-10.189-76.418l-50.945-178.308c-20.378-35.662-45.851-40.756-81.512-20.378h-5.095c-30.567 20.378-35.662 45.851-15.284 76.418l106.985 178.308c15.284 20.378 35.662 30.567 56.040 20.378v0z" />
<glyph unicode="&#xe90c;" glyph-name="heavy-snow" horiz-adv-x="1248" d="M1202.308 532.060c30.567-40.756 45.851-91.701 45.851-142.647s-15.284-96.796-45.851-137.552c-30.567-40.756-66.229-71.323-117.174-86.607v122.269c35.662 30.567 56.040 66.229 56.040 106.985 0 35.662-15.284 66.229-40.756 91.701s-56.040 40.756-91.701 40.756c-15.284 0-30.567 0-35.662-5.095 5.095 25.473 5.095 45.851 5.095 56.040 0 71.323-25.473 137.552-81.512 188.498s-112.080 81.512-183.403 81.512c-66.229 0-127.363-20.378-173.214-66.229-50.945-45.851-81.512-101.891-91.701-168.119-30.567 15.284-61.134 20.378-86.607 20.378-50.945 0-96.796-20.378-132.458-56.040s-56.040-76.418-56.040-132.458c0-50.945 20.378-96.796 56.040-132.458v-132.458c-50.945 25.473-86.607 56.040-117.174 106.985-30.567 45.851-45.851 101.891-45.851 157.93 0 81.512 30.567 152.836 86.607 208.876s127.363 86.607 208.876 86.607h10.189c30.567 66.229 76.418 117.174 137.552 152.836 61.134 40.756 127.363 56.040 203.781 56.040 96.796 0 183.403-30.567 254.726-96.796s112.080-142.647 122.269-239.443c45.851-10.189 81.512-40.756 112.080-81.512zM1008.716 221.294l-137.552-20.378c0-5.095 5.095-10.189 5.095-20.378s0-20.378-5.095-25.473l35.662-5.095h127.363v-5.095h-112.080l86.607-15.284c30.567-15.284 40.756-40.756 20.378-71.323l-5.095-5.095c-20.378-30.567-40.756-35.662-71.323-20.378l-86.607 112.080c-10.189-15.284-25.473-20.378-40.756-20.378l50.945-132.458c0-15.284-5.095-25.473-15.284-35.662s-25.473-15.284-35.662-15.284h-5.095c-15.284 0-25.473 5.095-35.662 15.284s-15.284 25.473-15.284 35.662l45.851 132.458c-15.284 0-25.473 5.095-35.662 20.378l-86.607-101.891c-30.567-20.378-56.040-10.189-71.323 20.378l-10.189-5.095c-15.284 30.567-5.095 56.040 20.378 71.323l86.607 15.284h-188.498c15.284-10.189 20.378-25.473 10.189-45.851s-25.473-25.473-45.851-10.189l-40.756 56.040h-20.378c-5.095 0-10.189 0-15.284 0l30.567-81.512c0-25.473-10.189-35.662-30.567-35.662h-5.095c-25.473 0-35.662 10.189-35.662 35.662l35.662 81.512c-5.095 0-10.189 0-10.189 5.095h-25.473l-45.851-56.040c-20.378-10.189-35.662-5.095-45.851 10.189-10.189 20.378-10.189 35.662 10.189 45.851l86.607 10.189c0 5.095-5.095 10.189-5.095 20.378v10.189l-81.512 15.284c-20.378 10.189-25.473 25.473-10.189 45.851v5.095c10.189 20.378 25.473 25.473 45.851 10.189l56.040-66.229c5.095 10.189 10.189 15.284 25.473 15.284l-30.567 81.512c0 20.378 10.189 30.567 35.662 30.567h5.095c20.378 0 30.567-10.189 30.567-30.567l-30.567-76.418c10.189 0 20.378-5.095 25.473-15.284l56.040 66.229c20.378 10.189 35.662 5.095 45.851-10.189v-5.095c10.189-20.378 10.189-35.662-10.189-45.851l-76.418-15.284v-10.189c0-10.189 0-15.284-5.095-20.378l81.512-10.189h208.876l25.473 5.095c-5.095 10.189-5.095 20.378-5.095 30.567 0 0 0 5.095 0 10.189s0 10.189 0 10.189l-127.363 20.378c-30.567 15.284-40.756 40.756-20.378 71.323l5.095 5.095c20.378 30.567 40.756 35.662 71.323 20.378l86.607-101.891c10.189 15.284 25.473 20.378 40.756 20.378l-61.134 117.174c0 35.662 20.378 56.040 56.040 56.040h5.095c15.284 0 25.473-5.095 35.662-15.284s15.284-25.473 15.284-40.756l-45.851-127.363c20.378-5.095 35.662-10.189 35.662-25.473l86.607 106.985c10.189 10.189 25.473 10.189 40.756 5.095s25.473-10.189 30.567-25.473l5.095-5.095c15.284-25.473 10.189-50.945-20.378-71.323zM397.373 149.97c0 0-5.095 5.095-5.095 5.095s-5.095 0-5.095 5.095l-5.095-5.095h15.284zM448.318 149.97l-5.095 5.095c0-5.095 0-5.095-5.095-5.095h10.189z" />
<glyph unicode="&#xe90d;" glyph-name="humidity" horiz-adv-x="1151" d="M346.428 552.438c45.851-45.851 91.701-101.891 137.552-173.214 45.851-66.229 71.323-122.269 71.323-168.119 0-76.418-25.473-142.647-81.512-193.592-56.040-56.040-117.174-81.512-193.592-81.512s-142.647 25.473-198.687 81.512c-50.945 56.040-81.512 117.174-81.512 193.592 0 45.851 25.473 101.891 76.418 178.308 50.945 71.323 91.701 122.269 122.269 152.836s56.040 56.040 76.418 76.418l71.323-66.229zM438.129 358.846c-40.756 56.040-76.418 91.701-101.891 112.080-20.378 25.473-40.756 40.756-61.134 56.040l-56.040-50.945c-35.662-30.567-76.418-71.323-112.080-122.269s-56.040-96.796-56.040-132.458c0-61.134 20.378-112.080 66.229-157.93s96.796-66.229 157.93-66.229c61.134 0 112.080 20.378 157.93 66.229s66.229 96.796 66.229 157.93c0 35.662-20.378 81.512-61.134 137.552zM927.204 888.677c45.851-45.851 91.701-101.891 137.552-168.119s71.323-122.269 71.323-173.214c0-76.418-25.473-142.647-81.512-193.592-56.040-56.040-117.174-81.512-193.592-81.512s-142.647 25.473-193.592 81.512c-56.040 56.040-81.512 117.174-81.512 193.592 0 45.851 25.473 106.985 76.418 178.308s91.701 122.269 122.269 152.836c30.567 30.567 56.040 56.040 76.418 76.418l66.229-66.229zM1080.040 562.627c0 35.662-20.378 81.512-61.134 132.458-40.756 56.040-71.323 91.701-96.796 117.174-25.473 20.378-45.851 40.756-61.134 56.040l-56.040-45.851c-35.662-35.662-76.418-76.418-112.080-127.363s-56.040-91.701-56.040-127.363c0-61.134 20.378-112.080 66.229-157.93s96.796-66.229 157.93-66.229c61.134 0 112.080 20.378 157.93 66.229 40.756 40.756 61.134 91.701 61.134 152.836z" />
<glyph unicode="&#xe90e;" glyph-name="menu" horiz-adv-x="1060" d="M1059.84 960v-163.84h-1059.84v163.84h1059.84zM0 529.92h1059.84v-163.84h-1059.84v163.84zM0 99.84h1059.84v-163.84h-1059.84v163.84z" />
<glyph unicode="&#xe90f;" glyph-name="night" horiz-adv-x="1019" d="M870.4 811.52c102.4-97.28 148.48-220.16 148.48-363.52s-51.2-261.12-148.48-363.52c-102.4-102.4-220.16-148.48-363.52-148.48-128 0-235.52 40.96-332.8 122.88-92.16 81.92-153.6 179.2-174.080 302.080 35.84-10.24 76.8-20.48 117.76-20.48 107.52 0 194.56 35.84 271.36 112.64s112.64 163.84 112.64 271.36c0 87.040-25.6 163.84-76.8 230.4 20.48 5.12 46.080 5.12 81.92 5.12 138.24 0 261.12-51.2 363.52-148.48zM614.4 58.88c40.96 15.36 87.040 35.84 133.12 66.56s87.040 71.68 117.76 128c30.72 56.32 46.080 122.88 46.080 194.56 0 117.76-46.080 220.16-133.12 296.96-56.32 51.2-112.64 87.040-179.2 102.4 15.36-163.84-10.24-296.96-76.8-394.24-40.96-61.44-92.16-112.64-158.72-143.36-66.56-35.84-112.64-51.2-143.36-56.32s-51.2-5.12-71.68-5.12c40.96-56.32 92.16-102.4 143.36-133.12 56.32-30.72 97.28-51.2 128-61.44s61.44-15.36 81.92-15.36c30.72 0 71.68 5.12 112.64 20.48z" />
<glyph unicode="&#xe910;" glyph-name="night-cloudy" horiz-adv-x="1198" d="M302.080 309.76c-15.36-40.96-25.6-76.8-30.72-97.28-71.68 20.48-133.12 56.32-179.2 112.64-51.2 56.32-81.92 117.76-92.16 194.56 30.72-15.36 61.44-20.48 92.16-20.48 76.8 0 143.36 25.6 199.68 81.92s81.92 122.88 81.92 204.8c0 56.32-20.48 117.76-56.32 168.96 5.12 0 15.36 0 30.72 0 10.24 5.12 20.48 5.12 25.6 5.12 107.52 0 194.56-35.84 271.36-112.64 76.8-71.68 112.64-163.84 112.64-266.24-40.96-10.24-76.8-20.48-112.64-40.96 0 5.12 0 10.24 0 20.48s0 15.36 0 20.48c0 71.68-30.72 133.12-87.040 199.68-35.84 35.84-61.44 56.32-76.8 56.32 10.24-112.64-15.36-204.8-76.8-286.72-61.44-76.8-138.24-122.88-240.64-143.36 40.96-56.32 87.040-87.040 138.24-97.28zM1187.84 125.44c0-51.2-20.48-97.28-56.32-133.12s-81.92-56.32-133.12-56.32h-435.2c-66.56 0-122.88 25.6-174.080 71.68s-71.68 102.4-71.68 174.080c0 66.56 25.6 122.88 71.68 168.96s102.4 71.68 174.080 71.68c10.24 0 20.48 0 25.6-5.12 51.2 76.8 122.88 117.76 215.040 117.76 66.56 0 128-20.48 174.080-66.56 51.2-46.080 81.92-102.4 92.16-163.84 81.92-40.96 117.76-97.28 117.76-179.2zM1054.72 69.12c15.36 15.36 25.6 35.84 25.6 56.32s-10.24 40.96-25.6 56.32c-15.36 15.36-35.84 25.6-56.32 25.6s-35.84-5.12-46.080-10.24c10.24 25.6 15.36 46.080 15.36 71.68 0 46.080-15.36 81.92-46.080 112.64s-71.68 46.080-117.76 46.080c-40.96 0-76.8-10.24-102.4-35.84-30.72-25.6-46.080-56.32-51.2-97.28-25.6 20.48-51.2 30.72-81.92 30.72-35.84 0-71.68-15.36-97.28-40.96s-40.96-56.32-40.96-97.28 15.36-71.68 40.96-97.28c25.6-25.6 56.32-40.96 97.28-40.96 10.24 0 20.48 0 25.6 5.12h389.12c5.12 0 10.24-5.12 20.48-5.12 20.48-5.12 35.84 0 51.2 20.48z" />
<glyph unicode="&#xe911;" glyph-name="night-less-cloudy" horiz-adv-x="1198" d="M179.2 407.040l35.84-35.84c-15.36-30.72-30.72-61.44-40.96-102.4-92.16 61.44-143.36 143.36-163.84 250.88 35.84-15.36 61.44-20.48 92.16-20.48 81.92 0 148.48 25.6 199.68 81.92 56.32 61.44 81.92 128 81.92 204.8 0 61.44-20.48 117.76-56.32 168.96 25.6 5.12 46.080 5.12 56.32 5.12 87.040 0 163.84-25.6 230.4-76.8s112.64-117.76 133.12-194.56c-35.84 0-71.68-10.24-107.52-20.48-10.24 30.72-35.84 66.56-66.56 107.52-35.84 35.84-61.44 56.32-81.92 51.2 10.24-102.4-15.36-199.68-76.8-281.6-10.24-5.12-25.6-20.48-46.080-46.080-35.84-10.24-66.56-30.72-92.16-61.44-35.84-15.36-71.68-25.6-97.28-30.72zM1198.080 176.64c0-66.56-25.6-122.88-71.68-168.96s-102.4-71.68-168.96-71.68c-5.12 0-10.24 0-15.36 0s-10.24 0-10.24 0h-440.32c-71.68 0-133.12 30.72-189.44 81.92-51.2 51.2-76.8 112.64-76.8 189.44 0 71.68 25.6 133.12 71.68 184.32 51.2 51.2 112.64 76.8 184.32 81.92 66.56 107.52 158.72 158.72 281.6 158.72 76.8 0 143.36-25.6 199.68-71.68s97.28-107.52 112.64-179.2c81.92-46.080 122.88-117.76 122.88-204.8zM1049.6 79.36c25.6 25.6 40.96 61.44 40.96 97.28s-10.24 61.44-30.72 87.040c-20.48 25.6-46.080 40.96-76.8 46.080 0 56.32-20.48 107.52-66.56 153.6-40.96 40.96-92.16 66.56-153.6 66.56-51.2 0-97.28-15.36-133.12-46.080-40.96-30.72-66.56-71.68-76.8-122.88-20.48 10.24-40.96 10.24-56.32 10.24-46.080 0-81.92-15.36-112.64-51.2-30.72-30.72-46.080-71.68-46.080-112.64 0-46.080 15.36-81.92 46.080-112.64s66.56-51.2 112.64-51.2c0 0 5.12 0 10.24 0s10.24 0 15.36 0h389.12c15.36-5.12 30.72-5.12 40.96-5.12 35.84 0 71.68 15.36 97.28 40.96z" />
<glyph unicode="&#xe912;" glyph-name="old-moon" d="M1018.88 376.32c-10.24-61.44-25.6-117.76-56.32-174.080-46.080-81.92-107.52-148.48-189.44-194.56-76.8-46.080-163.84-71.68-261.12-71.68-143.36 0-261.12 51.2-363.52 148.48s-148.48 225.28-148.48 363.52c0 97.28 25.6 184.32 71.68 266.24s112.64 143.36 194.56 189.44c61.44 30.72 117.76 46.080 174.080 56.32-46.080-46.080-76.8-92.16-102.4-138.24-20.48-56.32-30.72-112.64-30.72-168.96 0-112.64 40.96-209.92 122.88-286.72s174.080-122.88 286.72-122.88c56.32 0 112.64 10.24 168.96 35.84s97.28 56.32 133.12 97.28zM793.6 151.040c-35.84-5.12-56.32-10.24-76.8-10.24-143.36 0-261.12 51.2-363.52 148.48s-148.48 225.28-148.48 363.52c0 30.72 0 56.32 5.12 71.68-71.68-76.8-107.52-168.96-107.52-276.48 0-112.64 40.96-209.92 122.88-286.72s174.080-122.88 286.72-122.88c107.52 0 199.68 35.84 281.6 112.64z" />
<glyph unicode="&#xe913;" glyph-name="party-cloudy" horiz-adv-x="1198" d="M972.8 181.76c0-66.56-25.6-122.88-71.68-174.080-46.080-46.080-107.52-71.68-168.96-71.68h-460.8c-71.68 0-138.24 25.6-189.44 76.8s-81.92 117.76-81.92 189.44c0 71.68 25.6 133.12 76.8 184.32s112.64 81.92 184.32 87.040c66.56 107.52 158.72 158.72 281.6 158.72 76.8 0 143.36-25.6 204.8-71.68s97.28-107.52 112.64-179.2c76.8-46.080 112.64-112.64 112.64-199.68zM824.32 84.48c25.6 25.6 40.96 61.44 40.96 97.28 0 30.72-10.24 61.44-30.72 87.040s-46.080 40.96-76.8 46.080c0 61.44-20.48 107.52-61.44 153.6-40.96 40.96-92.16 61.44-153.6 61.44-51.2 0-97.28-15.36-138.24-46.080s-66.56-71.68-76.8-122.88c-15.36 10.24-35.84 10.24-56.32 10.24-46.080 0-81.92-15.36-117.76-46.080-30.72-30.72-51.2-71.68-51.2-117.76s15.36-81.92 51.2-112.64c30.72-30.72 71.68-46.080 117.76-46.080 10.24 0 20.48 0 30.72 5.12h424.96l5.12-5.12c35.84-5.12 66.56 10.24 92.16 35.84zM358.4 744.96c-25.6 25.6-25.6 51.2 0 76.8v0c25.6 25.6 46.080 25.6 76.8 0l35.84-35.84c25.6-25.6 25.6-51.2 0-76.8v0c-25.6-25.6-46.080-25.6-76.8 0l-35.84 35.84zM896 668.16c51.2-51.2 76.8-117.76 76.8-194.56 0-35.84-5.12-66.56-20.48-97.28-20.48 20.48-35.84 35.84-46.080 46.080-15.36 46.080-30.72 76.8-46.080 97.28-10.24 61.44-51.2 102.4-112.64 117.76-66.56 35.84-133.12 56.32-204.8 56.32h-5.12c46.080 35.84 102.4 51.2 158.72 51.2 81.92 0 143.36-25.6 199.68-76.8zM665.6 816.64c-10.24 10.24-15.36 25.6-15.36 35.84v56.32c0 35.84 15.36 51.2 51.2 51.2h5.12c35.84 0 51.2-15.36 51.2-51.2v-51.2c0-15.36-5.12-25.6-15.36-35.84s-20.48-15.36-35.84-15.36h-5.12c-10.24-5.12-25.6 0-35.84 10.24zM1054.72 750.080l-35.84-35.84c-25.6-25.6-51.2-25.6-76.8 0l-5.12 5.12c-25.6 25.6-25.6 46.080 0 76.8l35.84 35.84c25.6 25.6 51.2 25.6 76.8 0l5.12-5.12c30.72-25.6 30.72-51.2 0-76.8zM1187.84 478.72v0c0-40.96-15.36-56.32-51.2-56.32h-61.44c-15.36 0-25.6 5.12-35.84 15.36s-15.36 25.6-15.36 40.96v0c0 15.36 5.12 25.6 15.36 35.84s25.6 15.36 35.84 15.36h56.32c40.96 0 56.32-15.36 56.32-51.2z" />
<glyph unicode="&#xe914;" glyph-name="rain" horiz-adv-x="1249" d="M1203.2 514.56c30.72-46.080 46.080-92.16 46.080-148.48 0-71.68-25.6-133.12-76.8-179.2s-112.64-76.8-179.2-76.8h-133.12l40.96 117.76h71.68c0 0 5.12 0 10.24 0s5.12 0 10.24 0c35.84 0 71.68 15.36 97.28 40.96s40.96 61.44 40.96 102.4c0 35.84-15.36 71.68-40.96 97.28s-61.44 40.96-97.28 40.96c-15.36 0-30.72 0-35.84-5.12 5.12 25.6 5.12 46.080 5.12 61.44 0 76.8-25.6 143.36-81.92 199.68s-122.88 87.040-204.8 87.040c-71.68 0-133.12-25.6-184.32-71.68-51.2-51.2-81.92-107.52-92.16-179.2-30.72 15.36-61.44 20.48-87.040 20.48-56.32 0-102.4-20.48-138.24-56.32-40.96-40.96-56.32-87.040-56.32-143.36s20.48-102.4 56.32-143.36c35.84-35.84 81.92-56.32 138.24-56.32h153.6l-71.68-117.76h-81.92v5.12c-81.92 0-158.72 30.72-220.16 92.16s-92.16 133.12-92.16 220.16c0 87.040 30.72 158.72 92.16 220.16s133.12 92.16 220.16 92.16h10.24c30.72 66.56 81.92 122.88 143.36 163.84 66.56 40.96 138.24 61.44 215.040 61.44 102.4 0 189.44-35.84 266.24-102.4s117.76-153.6 128-250.88c51.2-15.36 92.16-51.2 128-92.16zM614.4 197.12l-56.32-174.080c-5.12-15.36-15.36-20.48-35.84-25.6-15.36-5.12-30.72 0-40.96 5.12h-5.12c-30.72 20.48-35.84 46.080-15.36 76.8l107.52 174.080c15.36 25.6 30.72 30.72 51.2 20.48h5.12c10.24-5.12 5.12-30.72-10.24-76.8zM824.32 279.040c15.36-10.24 15.36-35.84-5.12-81.92l-87.040-230.4c-20.48-30.72-46.080-40.96-81.92-25.6l-5.12 5.12c-30.72 15.36-35.84 40.96-15.36 76.8l138.24 230.4c20.48 20.48 35.84 30.72 56.32 25.6v0z" />
<glyph unicode="&#xe915;" glyph-name="rain-snow" horiz-adv-x="1198" d="M1141.76 535.040c30.72-40.96 46.080-92.16 46.080-143.36s-15.36-97.28-46.080-138.24c-30.72-40.96-66.56-71.68-117.76-87.040v122.88c35.84 30.72 56.32 66.56 56.32 107.52 0 35.84-15.36 66.56-40.96 92.16s-56.32 40.96-92.16 40.96c-15.36 0-30.72 0-35.84-5.12 5.12 25.6 10.24 40.96 10.24 56.32 0 71.68-25.6 138.24-76.8 189.44-51.2 56.32-117.76 81.92-194.56 81.92-66.56 0-128-20.48-174.080-66.56-51.2-46.080-81.92-102.4-92.16-168.96-30.72 15.36-61.44 20.48-87.040 20.48-51.2 0-97.28-20.48-133.12-56.32s-56.32-76.8-56.32-133.12c0-51.2 20.48-97.28 56.32-138.24v0-128c-51.2 25.6-87.040 56.32-117.76 107.52-30.72 46.080-46.080 102.4-46.080 158.72 0 81.92 30.72 153.6 87.040 209.92s128 87.040 209.92 87.040h10.24c25.6 61.44 71.68 112.64 133.12 153.6s128 61.44 204.8 61.44c97.28 0 184.32-30.72 256-97.28 71.68-61.44 112.64-143.36 122.88-240.64 46.080-15.36 87.040-46.080 117.76-87.040zM312.32 232.96l-56.32-168.96c-20.48-30.72-40.96-35.84-71.68-20.48v0c-30.72 20.48-35.84 46.080-20.48 76.8l102.4 163.84c10.24 25.6 30.72 35.84 46.080 20.48h5.12c15.36 0 10.24-25.6-5.12-71.68zM481.28 304.64c10.24-5.12 10.24-30.72-5.12-71.68l-56.32-168.96c-20.48-30.72-40.96-35.84-71.68-20.48h-5.12c-25.6 15.36-35.84 40.96-20.48 71.68l102.4 163.84c20.48 30.72 35.84 40.96 56.32 25.6v0zM947.2 222.72l-133.12-20.48c0 0 0-5.12 0-10.24s0-5.12 0-10.24c0-10.24 0-15.36-5.12-25.6l133.12-25.6c30.72-15.36 40.96-40.96 20.48-71.68l-5.12-5.12c-20.48-30.72-40.96-35.84-71.68-20.48l-87.040 107.52c-10.24-10.24-20.48-20.48-40.96-20.48l51.2-133.12c0-15.36-5.12-25.6-15.36-35.84s-25.6-15.36-35.84-15.36h-5.12c-15.36 0-25.6 5.12-35.84 15.36s-15.36 25.6-15.36 35.84l51.2 133.12c-15.36 0-30.72 10.24-40.96 20.48l-92.16-102.4c-30.72-20.48-56.32-10.24-71.68 20.48l-5.12 5.12c-15.36 35.84-10.24 56.32 20.48 71.68l138.24 25.6c-5.12 5.12-10.24 15.36-10.24 25.6 0 5.12 0 10.24 5.12 20.48l-133.12 20.48c-30.72 15.36-40.96 40.96-20.48 71.68l5.12 5.12c20.48 30.72 40.96 35.84 71.68 20.48l87.040-107.52c10.24 15.36 25.6 25.6 40.96 30.72l-46.080 122.88c0 35.84 20.48 56.32 56.32 56.32h5.12c15.36 0 25.6-5.12 35.84-15.36s15.36-25.6 15.36-40.96l-51.2-128c15.36-5.12 30.72-10.24 40.96-25.6l87.040 102.4c10.24 10.24 25.6 10.24 40.96 5.12s25.6-10.24 30.72-25.6l5.12-5.12c15.36-25.6 10.24-51.2-20.48-71.68z" />
<glyph unicode="&#xe916;" glyph-name="settings" horiz-adv-x="1029" d="M962.56 350.72c-25.6-5.12-40.96-5.12-51.2-10.24-10.24-40.96-25.6-76.8-46.080-107.52 30.72-40.96 51.2-66.56 66.56-92.16l-117.76-117.76c-20.48 15.36-51.2 35.84-92.16 66.56-30.72-20.48-66.56-35.84-107.52-46.080 0-5.12-5.12-25.6-10.24-51.2s-10.24-46.080-10.24-61.44h-163.84c-10.24 40.96-15.36 76.8-20.48 112.64-40.96 10.24-76.8 25.6-107.52 46.080-40.96-30.72-71.68-51.2-92.16-66.56l-117.76 117.76c5.12 10.24 20.48 30.72 35.84 51.2 15.36 30.72 25.6 40.96 25.6 46.080-20.48 30.72-35.84 66.56-46.080 107.52-10.24 0-20.48 5.12-35.84 5.12s-25.6 5.12-40.96 5.12c-10.24 0-20.48 5.12-30.72 5.12v168.96c40.96 10.24 76.8 20.48 107.52 20.48 10.24 40.96 25.6 76.8 46.080 107.52-35.84 51.2-56.32 81.92-61.44 92.16l117.76 117.76c10.24-5.12 40.96-25.6 92.16-61.44 30.72 20.48 66.56 35.84 107.52 46.080 0 30.72 10.24 66.56 20.48 107.52h168.96c5.12-15.36 5.12-35.84 10.24-61.44s5.12-40.96 5.12-46.080c40.96-10.24 76.8-25.6 107.52-46.080 10.24 5.12 20.48 10.24 30.72 20.48s20.48 15.36 30.72 25.6c10.24 5.12 20.48 10.24 25.6 15.36l117.76-117.76c-15.36-20.48-35.84-51.2-66.56-92.16 20.48-30.72 35.84-66.56 46.080-107.52 35.84-5.12 71.68-10.24 112.64-20.48v-168.96c-10.24 0-30.72-5.12-56.32-10.24zM691.2 268.8c51.2 51.2 76.8 112.64 76.8 184.32s-25.6 128-76.8 179.2-107.52 71.68-179.2 71.68c-71.68 0-133.12-25.6-179.2-76.8s-76.8-107.52-76.8-179.2c0-71.68 25.6-133.12 76.8-184.32s107.52-71.68 179.2-71.68c71.68 0 133.12 25.6 179.2 76.8z" />
<glyph unicode="&#xe917;" glyph-name="shover" horiz-adv-x="1126" d="M819.2 222.72c0-51.2-15.36-92.16-51.2-128s-76.8-51.2-128-51.2h-51.2l30.72 102.4h5.12c5.12 0 10.24-5.12 20.48-5.12 20.48 0 35.84 5.12 51.2 20.48s20.48 35.84 20.48 56.32c0 20.48-5.12 35.84-20.48 51.2-15.36 20.48-30.72 25.6-51.2 25.6-15.36 0-30.72-5.12-46.080-10.24 10.24 20.48 20.48 46.080 20.48 66.56 0 40.96-15.36 76.8-46.080 107.52-35.84 30.72-71.68 46.080-112.64 46.080-35.84 0-71.68-10.24-102.4-35.84s-46.080-56.32-51.2-92.16c-20.48 20.48-46.080 25.6-76.8 25.6-35.84 0-61.44-10.24-92.16-35.84-25.6-25.6-35.84-56.32-35.84-92.16s15.36-61.44 40.96-87.040c25.6-25.6 56.32-35.84 92.16-35.84h46.080l-61.44-102.4c-66.56 0-117.76 25.6-158.72 66.56-40.96 46.080-61.44 97.28-61.44 153.6 0 61.44 20.48 117.76 66.56 163.84s97.28 66.56 163.84 66.56c0 0 5.12 0 10.24 0s10.24 0 15.36 0c51.2 71.68 117.76 107.52 204.8 107.52 61.44 0 117.76-20.48 163.84-61.44s76.8-92.16 87.040-158.72c71.68-30.72 107.52-87.040 107.52-163.84zM399.36 120.32l-51.2-153.6c-15.36-30.72-40.96-40.96-66.56-20.48h-5.12c-25.6 15.36-30.72 40.96-20.48 66.56l97.28 153.6c20.48 25.6 35.84 35.84 51.2 25.6h5.12c10.24-5.12 5.12-30.72-10.24-71.68zM332.8 755.2c-20.48 25.6-20.48 51.2 0 71.68l5.12 5.12c20.48 25.6 46.080 25.6 66.56 0l35.84-35.84c25.6-25.6 25.6-46.080 0-71.68v-5.12c-25.6-25.6-51.2-25.6-76.8 0l-30.72 35.84zM563.2 192c15.36-5.12 10.24-25.6-5.12-71.68l-51.2-153.6c-5.12-10.24-15.36-20.48-30.72-25.6s-25.6-5.12-40.96 5.12v0c-25.6 20.48-30.72 40.96-15.36 66.56l97.28 153.6c10.24 25.6 25.6 35.84 46.080 25.6v0zM844.8 683.52c51.2-51.2 76.8-112.64 76.8-184.32s-25.6-128-76.8-179.2c-20.48 35.84-40.96 61.44-66.56 81.92 25.6 30.72 40.96 61.44 40.96 102.4s-15.36 76.8-46.080 107.52c-30.72 25.6-66.56 40.96-107.52 40.96-30.72 0-56.32-10.24-81.92-25.6-40.96 20.48-81.92 25.6-122.88 25.6 51.2 66.56 117.76 102.4 204.8 102.4 71.68 0 133.12-25.6 179.2-71.68zM629.76 821.76c-10.24 10.24-15.36 20.48-15.36 35.84v51.2c0 35.84 15.36 51.2 46.080 51.2h5.12c35.84 0 51.2-15.36 51.2-51.2v-51.2c0-15.36-5.12-25.6-15.36-35.84s-20.48-15.36-35.84-15.36v0c-15.36 0-25.6 5.12-35.84 15.36zM988.16 243.2c20.48-25.6 20.48-46.080 0-71.68l-5.12-5.12c-25.6-20.48-46.080-20.48-71.68 0l-35.84 35.84c-25.6 25.6-25.6 51.2 0 71.68l5.12 5.12c20.48 25.6 46.080 25.6 71.68 0l35.84-35.84zM885.76 724.48c-25.6 20.48-25.6 46.080 0 71.68l35.84 35.84c20.48 25.6 46.080 25.6 71.68 0l5.12-5.12c20.48-20.48 20.48-46.080 0-71.68l-40.96-35.84c-20.48-20.48-46.080-20.48-71.68 5.12v0zM1126.4 504.32v0c0-35.84-20.48-51.2-56.32-51.2h-56.32c-15.36 0-25.6 5.12-35.84 15.36-5.12 5.12-10.24 15.36-10.24 30.72v5.12c0 15.36 5.12 25.6 15.36 35.84s20.48 15.36 35.84 15.36h56.32c35.84 0 51.2-20.48 51.2-51.2z" />
<glyph unicode="&#xe918;" glyph-name="sleet" horiz-adv-x="1193" d="M1141.76 535.040c30.72-40.96 46.080-87.040 46.080-143.36 0-61.44-20.48-112.64-61.44-158.72s-92.16-71.68-153.6-81.92v107.52c30.72 5.12 56.32 20.48 76.8 46.080s30.72 51.2 30.72 87.040c0 35.84-15.36 66.56-40.96 97.28-25.6 25.6-56.32 40.96-92.16 40.96-10.24 0-20.48 0-35.84-5.12 5.12 25.6 5.12 46.080 5.12 56.32 0 76.8-25.6 138.24-81.92 194.56-51.2 51.2-117.76 76.8-189.44 76.8-66.56 0-128-20.48-174.080-66.56-51.2-46.080-81.92-97.28-92.16-163.84-35.84 10.24-61.44 20.48-81.92 20.48-51.2 0-97.28-20.48-133.12-56.32s-56.32-81.92-56.32-133.12c0-46.080 15.36-92.16 46.080-122.88 30.72-35.84 66.56-56.32 117.76-61.44l-5.12-112.64c-71.68 10.24-138.24 40.96-189.44 97.28-51.2 51.2-76.8 117.76-76.8 194.56 0 81.92 30.72 153.6 87.040 209.92s128 87.040 204.8 87.040h10.24c30.72 61.44 76.8 112.64 138.24 153.6s128 61.44 204.8 61.44c97.28 0 179.2-30.72 250.88-97.28s112.64-143.36 122.88-240.64c51.2-15.36 92.16-40.96 122.88-87.040zM537.6 202.24c0-30.72-10.24-56.32-30.72-76.8s-46.080-30.72-76.8-30.72c-30.72 0-56.32 10.24-76.8 30.72s-30.72 46.080-30.72 76.8c0 30.72 10.24 56.32 30.72 76.8s46.080 30.72 76.8 30.72c30.72 0 56.32-10.24 76.8-30.72s30.72-46.080 30.72-76.8zM757.76 43.52c0-30.72-10.24-56.32-30.72-76.8s-46.080-30.72-76.8-30.72c-30.72 0-56.32 10.24-76.8 30.72s-30.72 46.080-30.72 76.8c0 30.72 10.24 56.32 30.72 76.8s46.080 30.72 76.8 30.72c30.72 0 56.32-10.24 76.8-30.72 15.36-20.48 30.72-46.080 30.72-76.8zM916.48 181.76c0-20.48-10.24-40.96-25.6-56.32s-35.84-25.6-56.32-25.6c-25.6 0-40.96 10.24-56.32 25.6s-25.6 35.84-25.6 56.32c0 20.48 10.24 40.96 25.6 56.32s35.84 25.6 56.32 25.6c25.6 0 40.96-10.24 56.32-25.6 15.36-20.48 25.6-35.84 25.6-56.32z" />
<glyph unicode="&#xe919;" glyph-name="sleet-rain" horiz-adv-x="1249" d="M1198.080 514.56c30.72-46.080 46.080-92.16 46.080-148.48 0-66.56-20.48-122.88-66.56-168.96-40.96-51.2-97.28-76.8-158.72-81.92v112.64c30.72 5.12 61.44 25.6 81.92 51.2s30.72 56.32 30.72 92.16c0 35.84-15.36 71.68-40.96 97.28s-61.44 40.96-102.4 40.96c-15.36 0-25.6 0-30.72-5.12 5.12 25.6 5.12 46.080 5.12 61.44 0 76.8-30.72 143.36-87.040 199.68s-122.88 87.040-199.68 87.040c-71.68 0-133.12-25.6-184.32-71.68-51.2-51.2-81.92-107.52-92.16-179.2-30.72 15.36-61.44 20.48-87.040 20.48-56.32 0-102.4-20.48-143.36-56.32-40.96-40.96-56.32-87.040-56.32-143.36 0-51.2 15.36-97.28 46.080-133.12s71.68-56.32 117.76-66.56l-61.44-102.4c-66.56 20.48-117.76 56.32-158.72 112.64-35.84 56.32-56.32 117.76-56.32 189.44 0 87.040 30.72 158.72 92.16 220.16s133.12 92.16 215.040 92.16h10.24c35.84 66.56 81.92 122.88 148.48 163.84 61.44 40.96 133.12 61.44 209.92 61.44 102.4 0 189.44-35.84 266.24-102.4s117.76-153.6 128-250.88c56.32-15.36 97.28-46.080 128-92.16zM384 197.12l-56.32-174.080c-20.48-35.84-46.080-40.96-76.8-20.48v0c-30.72 15.36-35.84 40.96-20.48 76.8l107.52 174.080c15.36 30.72 30.72 35.84 51.2 25.6h5.12c10.24-10.24 5.12-35.84-10.24-81.92zM552.96 197.12l-56.32-174.080c-20.48-30.72-46.080-40.96-76.8-20.48v0c-30.72 15.36-35.84 40.96-20.48 76.8l107.52 174.080c15.36 25.6 30.72 35.84 51.2 25.6h5.12c10.24-10.24 10.24-35.84-10.24-81.92zM793.6 53.76c0-30.72-10.24-56.32-35.84-81.92s-51.2-35.84-81.92-35.84c-30.72 0-56.32 10.24-81.92 35.84-20.48 25.6-30.72 51.2-30.72 81.92s10.24 56.32 30.72 81.92c20.48 20.48 51.2 30.72 81.92 30.72s56.32-10.24 81.92-30.72c25.6-25.6 35.84-51.2 35.84-81.92zM962.56 197.12c0-20.48-10.24-40.96-25.6-61.44-15.36-15.36-35.84-25.6-61.44-25.6-20.48 0-40.96 10.24-61.44 25.6-15.36 15.36-25.6 35.84-25.6 61.44 0 20.48 10.24 40.96 25.6 61.44 15.36 15.36 35.84 25.6 61.44 25.6 20.48 0 40.96-10.24 61.44-25.6 20.48-20.48 25.6-40.96 25.6-61.44z" />
<glyph unicode="&#xe91a;" glyph-name="snow" horiz-adv-x="1193" d="M1141.76 535.040c30.72-40.96 46.080-92.16 46.080-143.36 0-66.56-25.6-122.88-71.68-174.080s-107.52-71.68-174.080-71.68h-20.48v112.64h10.24c5.12 0 10.24-5.12 20.48-5.12 35.84 0 66.56 15.36 92.16 40.96s40.96 56.32 40.96 97.28c0 35.84-15.36 66.56-40.96 92.16s-56.32 40.96-92.16 40.96c-15.36 0-30.72 0-35.84-5.12 0 30.72 5.12 46.080 5.12 61.44 0 71.68-25.6 138.24-76.8 189.44-51.2 56.32-117.76 81.92-194.56 81.92-66.56 0-128-20.48-174.080-66.56-51.2-46.080-81.92-102.4-92.16-168.96-25.6 10.24-51.2 20.48-81.92 20.48-51.2 0-97.28-20.48-133.12-56.32-40.96-35.84-61.44-81.92-61.44-133.12s20.48-97.28 56.32-133.12c35.84-35.84 81.92-56.32 133.12-56.32 0 0 5.12 0 5.12 5.12h76.8v-112.64h-81.92v5.12c-81.92 0-148.48 30.72-209.92 87.040-56.32 51.2-87.040 122.88-87.040 204.8s30.72 153.6 87.040 209.92c56.32 56.32 128 87.040 209.92 87.040h10.24c25.6 61.44 71.68 112.64 133.12 153.6s128 61.44 204.8 61.44c97.28 0 184.32-30.72 256-97.28 71.68-61.44 112.64-143.36 122.88-240.64 46.080-15.36 87.040-46.080 117.76-87.040zM834.56 222.72l-133.12-20.48c5.12-10.24 5.12-15.36 5.12-20.48 0-10.24-5.12-20.48-10.24-30.72l138.24-20.48c10.24-5.12 20.48-15.36 25.6-30.72s5.12-30.72-5.12-40.96l-5.12-5.12c-20.48-30.72-40.96-35.84-71.68-20.48l-87.040 107.52c-10.24-10.24-20.48-20.48-40.96-20.48l51.2-133.12c0-15.36-5.12-25.6-15.36-35.84s-20.48-15.36-35.84-15.36h-5.12c-15.36 0-25.6 5.12-35.84 15.36s-15.36 25.6-15.36 35.84l46.080 133.12c-15.36 5.12-30.72 10.24-35.84 20.48l-92.16-102.4c-10.24-10.24-25.6-10.24-40.96-5.12s-25.6 10.24-30.72 25.6l-5.12 5.12c-15.36 30.72-5.12 56.32 20.48 71.68l138.24 25.6c-5.12 5.12-10.24 15.36-10.24 25.6 0 5.12 0 10.24 5.12 20.48l-138.24 25.6c-10.24 5.12-20.48 15.36-25.6 30.72s0 30.72 5.12 40.96l5.12 5.12c5.12 10.24 15.36 20.48 30.72 25.6s30.72 0 40.96-5.12l87.040-107.52c10.24 15.36 25.6 25.6 40.96 30.72l-46.080 122.88c0 35.84 20.48 56.32 56.32 56.32h5.12c15.36 0 25.6-5.12 35.84-15.36s15.36-25.6 15.36-35.84l-46.080-138.24c15.36-5.12 30.72-10.24 40.96-25.6l87.040 102.4c30.72 15.36 56.32 10.24 71.68-20.48l5.12-5.12c15.36-25.6 5.12-51.2-25.6-71.68z" />
<glyph unicode="&#xe91b;" glyph-name="sunny" d="M174.080 412.16c-10.24-10.24-20.48-15.36-35.84-15.36h-92.16c-10.24 0-25.6 5.12-30.72 15.36-10.24 10.24-15.36 20.48-15.36 35.84v0c0 10.24 5.12 25.6 15.36 30.72 10.24 10.24 20.48 15.36 30.72 15.36h92.16c30.72 0 51.2-15.36 51.2-46.080v0c0-15.36-5.12-25.6-15.36-35.84zM148.48 744.96c-25.6 20.48-25.6 40.96 0 66.56h5.12c20.48 20.48 40.96 20.48 66.56 0l66.56-66.56c20.48-20.48 20.48-40.96 0-66.56h-5.12c-20.48-20.48-46.080-20.48-66.56 0l-66.56 66.56zM281.6 217.6c25.6-25.6 25.6-46.080 0-66.56l-66.56-66.56c-25.6-20.48-46.080-20.48-66.56 0l-5.12 5.12c-25.6 25.6-25.6 46.080 0 66.56l66.56 66.56c25.6 15.36 51.2 15.36 71.68-5.12v0zM793.6 448c0-76.8-25.6-143.36-81.92-199.68s-122.88-81.92-199.68-81.92c-76.8 0-143.36 25.6-199.68 81.92-51.2 56.32-81.92 122.88-81.92 199.68s25.6 143.36 81.92 199.68c51.2 51.2 117.76 81.92 199.68 81.92 76.8 0 143.36-25.6 199.68-81.92s81.92-117.76 81.92-199.68zM701.44 448c0 51.2-20.48 97.28-56.32 133.12-35.84 40.96-81.92 56.32-133.12 56.32s-97.28-20.48-133.12-56.32c-35.84-35.84-56.32-76.8-56.32-133.12 0-51.2 20.48-97.28 56.32-133.12s81.92-56.32 133.12-56.32c51.2 0 97.28 20.48 133.12 56.32 40.96 35.84 56.32 81.92 56.32 133.12zM481.28 785.92c-10.24 10.24-15.36 20.48-15.36 35.84v92.16c0 30.72 15.36 46.080 46.080 46.080h5.12c10.24 0 25.6-5.12 30.72-15.36 10.24-5.12 15.36-20.48 15.36-30.72v-92.16c0-10.24-5.12-25.6-15.36-30.72-10.24-10.24-20.48-15.36-30.72-15.36h-5.12c-10.24 0-20.48 5.12-30.72 10.24zM547.84 110.080c10.24-10.24 15.36-20.48 15.36-30.72v-92.16c0-10.24-5.12-25.6-15.36-30.72-10.24-10.24-20.48-15.36-30.72-15.36h-5.12c-30.72 0-46.080 15.36-46.080 46.080v92.16c0 10.24 5.12 25.6 15.36 30.72 10.24 10.24 20.48 15.36 30.72 15.36h5.12c10.24-5.12 20.48-10.24 30.72-15.36zM742.4 678.4c-20.48 25.6-20.48 46.080 0 66.56l66.56 66.56c25.6 20.48 46.080 20.48 66.56 0l5.12-5.12c20.48-20.48 20.48-46.080 0-66.56l-66.56-66.56c-25.6-20.48-46.080-20.48-71.68 5.12v0zM875.52 151.040c25.6-20.48 25.6-40.96 0-66.56l-5.12-5.12c-20.48-20.48-40.96-20.48-66.56 0l-66.56 66.56c-20.48 25.6-20.48 46.080 0 66.56h5.12c20.48 25.6 40.96 25.6 66.56 0l66.56-61.44zM1013.76 483.84c10.24-10.24 15.36-20.48 15.36-30.72v-5.12c0-10.24-5.12-25.6-15.36-30.72-10.24-10.24-20.48-15.36-30.72-15.36h-92.16c-10.24 0-25.6 5.12-35.84 15.36s-15.36 20.48-15.36 30.72v0c0 30.72 15.36 46.080 51.2 46.080h92.16c10.24 0 20.48-5.12 30.72-10.24z" />
<glyph unicode="&#xe91c;" glyph-name="sunrise" horiz-adv-x="1382" d="M1382.4 7.68v-71.68h-476.16v10.24l-5.12-5.12-209.92 209.92-209.92-209.92-5.12 5.12v-10.24h-476.16v71.68h450.56l235.52 235.52 5.12-5.12 5.12 5.12 235.52-235.52h450.56zM46.080 253.44c-10.24 10.24-15.36 25.6-15.36 46.080v5.12c0 15.36 5.12 30.72 15.36 46.080 10.24 10.24 25.6 15.36 40.96 15.36h122.88c15.36 0 30.72-5.12 40.96-15.36s15.36-25.6 15.36-46.080v-10.24c0-15.36-5.12-30.72-15.36-46.080-10.24-10.24-25.6-15.36-40.96-15.36h-128c-10.24 0-25.6 5.12-35.84 20.48zM215.040 683.52c-25.6 25.6-25.6 56.32 0 81.92l5.12 5.12c25.6 25.6 56.32 25.6 87.040 0l81.92-87.040c25.6-25.6 25.6-56.32 0-81.92v-10.24c-30.72-25.6-56.32-25.6-87.040 0l-87.040 92.16zM327.68 299.52c0 102.4 35.84 189.44 107.52 256 71.68 71.68 158.72 107.52 261.12 107.52s189.44-35.84 256-107.52c71.68-71.68 107.52-158.72 107.52-256 0-71.68-20.48-133.12-56.32-194.56h-102.4c56.32 51.2 81.92 112.64 81.92 194.56 0 76.8-25.6 143.36-81.92 199.68s-122.88 81.92-199.68 81.92-153.6-30.72-209.92-87.040c-56.32-51.2-81.92-117.76-81.92-194.56s25.6-138.24 81.92-194.56h-102.4c-40.96 61.44-61.44 122.88-61.44 194.56zM645.12 739.84c-10.24 10.24-15.36 25.6-15.36 46.080v117.76c0 15.36 5.12 30.72 15.36 40.96 15.36 10.24 25.6 15.36 46.080 15.36h5.12c15.36 0 30.72-5.12 46.080-15.36 10.24-10.24 15.36-25.6 15.36-40.96v-117.76c0-40.96-20.48-61.44-61.44-61.44h-5.12c-20.48-5.12-30.72 0-46.080 15.36zM993.28 596.48c-30.72 25.6-30.72 56.32 0 87.040l81.92 87.040c25.6 25.6 56.32 25.6 87.040 0l5.12-5.12c25.6-25.6 25.6-56.32 0-81.92l-87.040-87.040c-30.72-30.72-56.32-30.72-87.040 0v0zM1136.64 340.48c10.24 10.24 25.6 15.36 40.96 15.36h122.88c15.36 0 30.72-5.12 46.080-15.36 10.24-10.24 15.36-25.6 15.36-46.080v0c0-15.36-5.12-30.72-15.36-40.96-10.24-15.36-25.6-20.48-46.080-20.48h-122.88c-15.36 0-30.72 5.12-40.96 15.36s-15.36 25.6-15.36 46.080v5.12c-5.12 15.36 0 30.72 15.36 40.96z" />
<glyph unicode="&#xe91d;" glyph-name="sunset" horiz-adv-x="1172" d="M1167.36 197.12v-61.44h-378.88l-199.68-199.68-5.12 5.12-5.12-5.12-199.68 199.68h-378.88v61.44h404.48v-10.24l5.12 5.12 179.2-174.080 174.080 174.080 5.12-5.12v10.24h399.36zM35.84 360.96c-10.24 10.24-15.36 20.48-15.36 35.84v5.12c0 15.36 5.12 25.6 15.36 35.84s20.48 15.36 35.84 15.36h102.4c15.36 0 25.6-5.12 35.84-15.36s15.36-25.6 15.36-35.84v-5.12c0-15.36-5.12-25.6-15.36-35.84s-20.48-15.36-35.84-15.36h-102.4c-15.36 0-25.6 5.12-35.84 15.36zM184.32 719.36c-25.6 25.6-25.6 51.2 0 76.8h5.12c25.6 25.6 46.080 25.6 71.68 0l76.8-71.68c20.48-25.6 20.48-46.080 0-71.68h-5.12c-30.72-30.72-51.2-30.72-76.8 0l-71.68 66.56zM276.48 401.92c0 87.040 30.72 158.72 92.16 215.040 61.44 61.44 133.12 87.040 220.16 87.040s158.72-30.72 215.040-87.040 87.040-133.12 87.040-215.040c0-56.32-15.36-112.64-46.080-163.84h-87.040c46.080 46.080 66.56 102.4 66.56 163.84 0 66.56-25.6 122.88-71.68 168.96s-102.4 71.68-168.96 71.68c-66.56 0-122.88-25.6-168.96-71.68s-71.68-102.4-71.68-168.96c0-61.44 20.48-117.76 66.56-163.84h-81.92c-35.84 46.080-51.2 102.4-51.2 163.84zM547.84 770.56c-10.24 10.24-15.36 20.48-15.36 35.84v102.4c0 15.36 5.12 25.6 15.36 35.84s20.48 15.36 35.84 15.36h5.12c35.84 0 51.2-15.36 51.2-51.2v-102.4c0-35.84-15.36-51.2-51.2-51.2h-5.12c-15.36 0-25.6 5.12-35.84 15.36zM834.56 652.8c-20.48 25.6-20.48 51.2 0 71.68l76.8 76.8c20.48 20.48 46.080 20.48 71.68 0l5.12-5.12c25.6-25.6 25.6-51.2 0-71.68l-76.8-71.68c-20.48-25.6-46.080-25.6-76.8 0v0zM957.44 437.76c10.24 10.24 20.48 15.36 35.84 15.36h102.4c15.36 0 25.6-5.12 35.84-15.36s15.36-25.6 15.36-35.84v-5.12c0-15.36-5.12-25.6-15.36-35.84-5.12-10.24-20.48-15.36-30.72-15.36h-102.4c-15.36 0-25.6 5.12-35.84 15.36s-15.36 20.48-15.36 35.84v5.12c-5.12 10.24 0 25.6 10.24 35.84z" />
<glyph unicode="&#xe91e;" glyph-name="thundershowers-sunny" horiz-adv-x="1080" d="M788.48 253.44c0-46.080-15.36-87.040-51.2-122.88s-71.68-51.2-122.88-51.2h-66.56l56.32 97.28h10.24c20.48 0 40.96 5.12 51.2 20.48 15.36 15.36 20.48 30.72 20.48 51.2s-5.12 40.96-20.48 51.2c-15.36 15.36-30.72 20.48-51.2 20.48-15.36 0-25.6-5.12-35.84-10.24 10.24 20.48 15.36 46.080 15.36 61.44 0 40.96-15.36 76.8-46.080 102.4-30.72 30.72-66.56 40.96-102.4 40.96s-66.56-10.24-97.28-35.84c-25.6-20.48-46.080-51.2-51.2-87.040-20.48 15.36-46.080 20.48-71.68 20.48-35.84 0-66.56-10.24-87.040-35.84-25.6-25.6-35.84-51.2-35.84-87.040s10.24-61.44 35.84-87.040c25.6-25.6 56.32-35.84 87.040-35.84 10.24 0 15.36 0 20.48 5.12h40.96l-61.44-102.4h-5.12v5.12c-61.44 0-112.64 20.48-153.6 66.56-46.080 51.2-66.56 102.4-66.56 158.72 0 61.44 20.48 112.64 66.56 158.72 40.96 40.96 92.16 66.56 153.6 66.56 5.12 0 10.24 0 15.36 0s10.24 0 10.24 0c51.2 66.56 117.76 102.4 199.68 102.4 61.44 0 112.64-20.48 158.72-56.32 46.080-40.96 71.68-87.040 81.92-148.48 66.56-40.96 102.4-92.16 102.4-168.96zM440.32 176.64h97.28l-143.36-240.64 5.12 143.36h-102.4l148.48 250.88v-153.6zM317.44 765.44c-20.48 25.6-20.48 46.080 0 66.56l5.12 5.12c25.6 25.6 46.080 25.6 66.56 0l35.84-35.84c20.48-20.48 20.48-46.080 0-66.56v-5.12c-25.6-25.6-46.080-25.6-71.68 0l-35.84 35.84zM814.080 693.76c46.080-46.080 71.68-107.52 71.68-174.080s-25.6-122.88-71.68-174.080c-15.36 30.72-35.84 56.32-61.44 76.8 25.6 30.72 35.84 61.44 35.84 97.28 0 40.96-15.36 76.8-40.96 102.4-30.72 30.72-61.44 40.96-102.4 40.96-30.72 0-56.32-5.12-81.92-20.48-40.96 15.36-76.8 20.48-117.76 20.48 51.2 66.56 112.64 97.28 194.56 97.28 66.56 5.12 122.88-20.48 174.080-66.56zM604.16 826.88c-10.24 10.24-15.36 20.48-15.36 35.84v46.080c0 30.72 15.36 51.2 46.080 51.2h5.12c30.72 0 51.2-15.36 51.2-51.2v-51.2c0-15.36-5.12-25.6-15.36-35.84s-20.48-15.36-35.84-15.36h-5.12c-10.24 5.12-20.48 10.24-30.72 20.48zM947.2 273.92c20.48-20.48 20.48-46.080 0-66.56l-5.12-5.12c-20.48-20.48-46.080-20.48-66.56 0l-35.84 35.84c-25.6 25.6-25.6 46.080 0 66.56l5.12 5.12c20.48 25.6 46.080 25.6 66.56 0l35.84-35.84zM849.92 734.72c-25.6 20.48-25.6 46.080 0 66.56l35.84 35.84c20.48 25.6 46.080 25.6 66.56 0l5.12-5.12c20.48-20.48 20.48-46.080 0-66.56l-35.84-35.84c-25.6-20.48-46.080-20.48-71.68 5.12v0zM1080.32 519.68v0c0-35.84-15.36-51.2-51.2-51.2h-51.2c-30.72 0-51.2 15.36-51.2 46.080v5.12c0 30.72 15.36 51.2 51.2 51.2h51.2c30.72 0 51.2-15.36 51.2-51.2z" />
<glyph unicode="&#xe91f;" glyph-name="thunderstorm" horiz-adv-x="1137" d="M1080.32 555.52c30.72-40.96 46.080-87.040 46.080-133.12 0-61.44-20.48-117.76-66.56-158.72-46.080-46.080-97.28-66.56-158.72-71.68h-128l61.44 107.52h35.84c0 0 5.12 0 10.24 0s10.24 0 15.36 0c35.84 0 61.44 10.24 87.040 35.84s35.84 56.32 35.84 92.16c0 35.84-10.24 66.56-35.84 92.16-20.48 20.48-51.2 30.72-87.040 30.72-10.24 0-20.48 0-30.72-5.12 5.12 25.6 5.12 40.96 5.12 56.32 0 71.68-25.6 133.12-76.8 184.32s-112.64 76.8-184.32 76.8c-66.56 0-117.76-20.48-168.96-61.44-40.96-46.080-71.68-102.4-81.92-163.84-25.6 10.24-51.2 20.48-76.8 20.48-51.2 0-92.16-15.36-128-51.2s-51.2-81.92-51.2-128c0-51.2 15.36-92.16 51.2-128s76.8-51.2 128-51.2h117.76l-61.44-107.52h-56.32c-76.8 0-143.36 25.6-199.68 81.92s-81.92 122.88-81.92 199.68c0 76.8 25.6 143.36 81.92 199.68s122.88 81.92 199.68 81.92h10.24c25.6 61.44 66.56 107.52 128 148.48 56.32 35.84 122.88 56.32 194.56 56.32 92.16 0 174.080-30.72 240.64-92.16s102.4-138.24 112.64-225.28c46.080-15.36 87.040-46.080 112.64-87.040zM614.4 294.4h153.6l-204.8-358.4v256h-153.6l204.8 358.4v-256z" />
<glyph unicode="&#xe920;" glyph-name="wind" horiz-adv-x="1321" d="M1131.52 345.6c46.080-46.080 71.68-102.4 71.68-168.96s-25.6-122.88-71.68-168.96c-46.080-46.080-102.4-71.68-168.96-71.68s-128 25.6-174.080 71.68c-46.080 46.080-71.68 102.4-71.68 174.080h117.76c0-30.72 10.24-61.44 35.84-81.92 25.6-25.6 51.2-35.84 81.92-35.84s61.44 10.24 81.92 35.84c25.6 25.6 35.84 51.2 35.84 81.92s-10.24 61.44-35.84 87.040c-25.6 25.6-51.2 35.84-81.92 35.84h-5.12v-5.12h-947.2v117.76h962.56c61.44 0 117.76-20.48 168.96-71.68zM117.76 478.72v117.76h655.36v5.12h5.12c30.72 0 61.44 10.24 81.92 35.84 25.6 25.6 35.84 51.2 35.84 81.92s-10.24 61.44-35.84 81.92c-25.6 25.6-51.2 35.84-81.92 35.84s-61.44-10.24-81.92-35.84c-25.6-25.6-35.84-51.2-35.84-81.92v-5.12h-117.76v5.12c0 66.56 25.6 122.88 71.68 168.96s102.4 71.68 168.96 71.68c66.56 0 122.88-25.6 168.96-71.68s71.68-102.4 71.68-168.96c0-66.56-25.6-128-71.68-174.080s-102.4-71.68-174.080-71.68h-660.48zM1264.64 785.92c35.84-35.84 51.2-76.8 51.2-128s-15.36-92.16-51.2-128c-35.84-35.84-76.8-51.2-128-51.2h-117.76v30.72l61.44 87.040h61.44v5.12c15.36 0 30.72 5.12 40.96 15.36s15.36 25.6 15.36 40.96c0 35.84-20.48 56.32-61.44 61.44v122.88c51.2 0 97.28-20.48 128-56.32z" />
<glyph unicode="&#xe921;" glyph-name="wind-direction" horiz-adv-x="717" d="M619.52 140.8c-66.56-66.56-143.36-107.52-235.52-112.64v-92.16h-46.080v87.040c-92.16 5.12-174.080 40.96-240.64 112.64-66.56 66.56-97.28 148.48-97.28 245.76s30.72 179.2 97.28 245.76c66.56 66.56 143.36 107.52 240.64 112.64v153.6l-51.2-51.2-20.48 20.48 92.16 97.28 97.28-97.28-20.48-20.48-51.2 51.2v-158.72c92.16-10.24 168.96-46.080 235.52-112.64s97.28-148.48 97.28-240.64c-5.12-92.16-35.84-174.080-97.28-240.64zM670.72 381.44c0 87.040-30.72 158.72-92.16 220.16s-133.12 92.16-220.16 92.16-163.84-30.72-225.28-92.16c-61.44-61.44-92.16-133.12-92.16-220.16s30.72-158.72 92.16-220.16c61.44-61.44 133.12-92.16 220.16-92.16s158.72 30.72 220.16 92.16c66.56 61.44 97.28 133.12 97.28 220.16z" />
<glyph unicode="&#xe922;" glyph-name="young-moon" d="M133.12 279.040c51.2-25.6 107.52-35.84 168.96-35.84 112.64 0 209.92 40.96 291.84 122.88 76.8 81.92 117.76 179.2 117.76 286.72 0 66.56-10.24 122.88-35.84 168.96-25.6 51.2-56.32 97.28-97.28 138.24 56.32-10.24 117.76-25.6 174.080-56.32 81.92-46.080 148.48-107.52 194.56-189.44s71.68-168.96 71.68-266.24c0-143.36-51.2-261.12-148.48-363.52s-220.16-148.48-363.52-148.48c-97.28 0-184.32 25.6-266.24 76.8s-143.36 112.64-184.32 194.56c-30.72 51.2-46.080 112.64-56.32 174.080 35.84-46.080 76.8-76.8 133.12-102.4zM506.88 38.4c112.64 0 215.040 40.96 291.84 122.88s122.88 174.080 122.88 286.72c0 102.4-35.84 194.56-107.52 276.48 0-10.24 0-20.48 0-35.84s0-25.6 0-35.84c0-143.36-51.2-261.12-148.48-363.52s-220.16-148.48-363.52-148.48c-15.36 0-40.96 5.12-71.68 10.24 76.8-76.8 168.96-112.64 276.48-112.64z" />
<glyph unicode="&#xe923;" glyph-name="active-window" d="M153.6 811.52c97.28 97.28 220.16 148.48 358.4 148.48 143.36 0 261.12-51.2 363.52-148.48s148.48-220.16 148.48-363.52c0-143.36-51.2-261.12-148.48-363.52s-220.16-148.48-363.52-148.48c-143.36 0-261.12 51.2-363.52 148.48s-148.48 220.16-148.48 363.52c0 143.36 51.2 261.12 153.6 363.52z" />
<glyph unicode="&#xe924;" glyph-name="next-window" d="M1024 448c0-143.36-51.2-261.12-148.48-363.52s-220.16-148.48-363.52-148.48c-143.36 0-261.12 51.2-363.52 148.48s-148.48 220.16-148.48 363.52c0 143.36 51.2 261.12 148.48 363.52s220.16 148.48 363.52 148.48c143.36 0 261.12-51.2 363.52-148.48s148.48-220.16 148.48-363.52zM896 448c0 107.52-35.84 199.68-112.64 271.36-76.8 76.8-163.84 112.64-271.36 112.64s-199.68-35.84-271.36-112.64c-76.8-71.68-112.64-163.84-112.64-271.36s35.84-199.68 112.64-271.36c76.8-76.8 163.84-112.64 271.36-112.64s199.68 35.84 271.36 112.64c76.8 71.68 112.64 163.84 112.64 271.36z" />
<glyph unicode="&#xe925;" glyph-name="refresh" horiz-adv-x="1183" d="M1177.6 806.4v-307.2c0-35.84-15.36-51.2-51.2-51.2h-307.2c-35.84 0-51.2 15.36-51.2 51.2s15.36 51.2 51.2 51.2h168.96l-184.32 189.44c-81.92 76.8-179.2 117.76-291.84 117.76-117.76 0-209.92-40.96-291.84-122.88s-117.76-174.080-117.76-286.72c0-112.64 40.96-209.92 117.76-291.84s174.080-117.76 291.84-117.76c112.64 0 209.92 40.96 291.84 117.76 51.2 51.2 87.040 117.76 102.4 189.44h102.4c-15.36-97.28-61.44-184.32-138.24-261.12-102.4-97.28-220.16-148.48-363.52-148.48s-261.12 51.2-358.4 148.48c-97.28 97.28-148.48 220.16-148.48 358.4 0 143.36 51.2 266.24 148.48 363.52 97.28 102.4 220.16 153.6 358.4 153.6 143.36 0 261.12-51.2 363.52-153.6l199.68-204.8v204.8c0 35.84 15.36 51.2 51.2 51.2s56.32-20.48 56.32-51.2zM1233.92 442.88h-10.24v10.24l10.24-10.24z" />
<glyph unicode="&#xe926;" glyph-name="check" horiz-adv-x="1480" d="M737.28 79.36l-138.24-143.36-599.040 599.040 143.36 143.36 455.68-450.56 737.28 732.16 143.36-143.36-742.4-737.28z" />
</font>
</defs>
</svg>
